inDegrees=yes
name=ik_S47_A09_T02
DataType=double
version=3
OpenSimVersion=4.3-2021-08-27-4bc7ad9
endheader
time	pelvis_tilt	pelvis_list	pelvis_rotation	pelvis_tx	pelvis_ty	pelvis_tz	hip_flexion_r	hip_adduction_r	hip_rotation_r	knee_angle_r	knee_angle_r_beta	ankle_angle_r	subtalar_angle_r	mtp_angle_r	hip_flexion_l	hip_adduction_l	hip_rotation_l	knee_angle_l	knee_angle_l_beta	ankle_angle_l	subtalar_angle_l	mtp_angle_l	lumbar_extension	lumbar_bending	lumbar_rotation	arm_flex_r	arm_add_r	arm_rot_r	elbow_flex_r	pro_sup_r	wrist_flex_r	wrist_dev_r	arm_flex_l	arm_add_l	arm_rot_l	elbow_flex_l	pro_sup_l	wrist_flex_l	wrist_dev_l
10.93999999999986	-13.46292085203921	-6.558342192721274	29.57423160670561	0	0.9399999999999999	0	44.38729541271364	-9.975152062385883	-10.01971555564742	55.34262391430033	0.965911003997493	0	0	0	44.38729541271364	-9.975152062385883	-10.01971555564742	55.34262391430033	0.965911003997493	0	0	0	-13.78726300566485	-0.9186892662262549	1.428468868459956	73.03054412846073	-13.59652731072206	30.49380677429206	59.26593973213144	90.5906579409492	0	0	65.76831931198818	-6.019181744321054	16.50574575946442	56.58236923051264	81.51501449804844	0	0
10.95999999999986	-13.49460042614071	-6.61684629365816	29.34181991745663	0	0.9399999999999999	0	44.39274934452778	-9.975675350166602	-10.01940730853607	55.33993617572424	0.9658640941099073	0	0	0	44.39274934452778	-9.975675350166602	-10.01940730853607	55.33993617572424	0.9658640941099073	0	0	0	-13.82727018521738	-1.010683921816309	1.65630947477035	72.66697225471087	-13.84915567886061	28.04117477319819	60.33612054783237	91.39664504398198	0	0	65.77711982643807	-5.977177215519146	16.85397312501036	56.70599339016787	81.41237960741903	0	0
10.97999999999985	-13.52381875839661	-6.678755456596593	29.33946819351847	0	0.9399999999999999	0	44.39312787365412	-9.975727453406794	-10.01938049621768	55.33979218004075	0.9658615809111217	0	0	0	44.39312787365412	-9.975727453406794	-10.01938049621768	55.33979218004075	0.9658615809111217	0	0	0	-13.88771358365444	-1.036793596794621	1.620513917264586	72.84774442075532	-13.86887580944148	27.92407700345007	61.31192504355924	89.11718190223212	0	0	65.86837025432227	-5.986547475405493	16.92001463210027	56.71386051109939	81.48854533739117	0	0
10.99999999999985	-13.54065107953048	-6.736874167127672	29.10804452246995	0	0.9399999999999999	0	44.40045512595913	-9.976421317358025	-10.01896893995294	55.33619390272762	0.9657987791246077	0	0	0	44.40045512595913	-9.976421317358025	-10.01896893995294	55.33619390272762	0.9657987791246077	0	0	0	-13.91754486940229	-1.136439326840047	1.847737169275601	74.06229720507559	-13.93247550755948	24.75307551651603	63.41169597210661	86.67874356601097	0	0	65.97204299030832	-5.956983166456508	16.84801447603198	56.69936427392398	81.60279127196758	0	0
11.01999999999985	-13.54283979843362	-6.762827899626747	28.99041200196957	0	0.9399999999999999	0	44.4007379831827	-9.976460157006439	-10.01894889408995	55.33608773610629	0.9657969261675099	0	0	0	44.4007379831827	-9.976460157006439	-10.01894889408995	55.33608773610629	0.9657969261675099	0	0	0	-13.92378784483058	-1.185751553036177	1.928499452222607	75.10243635804625	-13.8495294869887	23.75791371611611	62.59586009319383	86.7748264622779	0	0	66.01254471063349	-5.992739931748755	16.89443959068646	56.76453926564211	81.55414358104146	0	0
11.03999999999985	-13.54341915903322	-6.764102671963706	28.94780646538682	0	0.9399999999999999	0	44.40107753139245	-9.976506666989154	-10.0189248646426	55.3359601251262	0.9657946989357455	0	0	0	44.40107753139245	-9.976506666989154	-10.0189248646426	55.3359601251262	0.9657946989357455	0	0	0	-13.92964079453973	-1.188382963607125	1.92300056574444	76.57996438212814	-14.07663021234492	22.86903844193859	65.75360767188387	84.95748622660014	0	0	66.0219847560583	-6.010684745098707	16.70396624410776	56.75462063663181	81.51924150830085	0	0
11.05999999999985	-13.55552732276942	-6.77552688381677	28.89483022174233	0	0.9399999999999999	0	44.40124234019103	-9.976529070704464	-10.01891325824276	55.33589778510434	0.9657936108971082	0	0	0	44.40124234019103	-9.976529070704464	-10.01891325824276	55.33589778510434	0.9657936108971082	0	0	0	-13.95310707020689	-1.17971188202992	1.873538455401221	78.02747346084868	-13.96758556300745	22.68818963130522	66.66456967586505	85.61404362658988	0	0	65.92536349682408	-6.188842142353641	16.63303700507948	56.93280143570038	81.41364069051134	0	0
11.07999999999985	-13.53047009211638	-6.755211237939107	28.89373250669712	0	0.9399999999999999	0	44.4014315790944	-9.976554839714781	-10.01889991442708	55.335826366497	0.9657923644072631	0	0	0	44.4014315790944	-9.976554839714781	-10.01889991442708	55.335826366497	0.9657923644072631	0	0	0	-13.93178653374595	-1.147307144282248	1.782254498496537	79.1045506697493	-13.71493568840613	23.13755683435753	66.84002323997815	86.18168912416614	0	0	65.86669335555351	-6.258566526247137	16.58382388426518	57.02165952409428	81.022260156264	0	0
11.09999999999985	-13.47221820047842	-6.730799938234366	28.97051824357607	0	0.9399999999999999	0	44.40176933775087	-9.976600878785332	-10.01887607825212	55.33569912256424	0.9657901435816832	0	0	0	44.40176933775087	-9.976600878785332	-10.01887607825212	55.33569912256424	0.9657901435816832	0	0	0	-13.88232227903317	-1.114639568633581	1.645169466053755	80.11428457697727	-13.3809839743495	24.00403687424457	67.69986482058988	87.9776612393733	0	0	65.47447893758608	-6.338638564332643	16.83304364664933	57.35051028480912	80.65563227342744	0	0
11.11999999999985	-13.42081505423465	-6.721648665052147	28.81589120355006	0	0.9399999999999999	0	44.40215591292841	-9.976653156158555	-10.01884893311049	55.33555257618407	0.9657875858648424	0	0	0	44.40215591292841	-9.976653156158555	-10.01884893311049	55.33555257618407	0.9657875858648424	0	0	0	-13.82304291084066	-1.169355953821068	1.744288026957351	80.06251207925261	-13.3947459365792	23.95524975482999	70.0372417864918	91.51249511855821	0	0	65.32215015043076	-6.336523265252267	16.9258308544141	57.40525507531519	80.48193324916946	0	0
11.13999999999985	-13.38235898007194	-6.7317064334441	28.93492477880823	0	0.9399999999999999	0	44.40234975673735	-9.976679532491151	-10.01883526236026	55.3354796059747	0.9657863122944329	0	0	0	44.40234975673735	-9.976679532491151	-10.01883526236026	55.3354796059747	0.9657863122944329	0	0	0	-13.80660064867327	-1.159922897972415	1.613157592900397	80.96432420790549	-13.02155377059434	25.16734605487111	69.88210919651912	91.90522922116877	0	0	65.31476780085175	-6.310244132951448	16.86265311634286	57.32690008015998	80.4085388378297	0	0
11.15999999999985	-13.33689134293347	-6.762096036232032	29.10154162518836	0	0.9399999999999999	0	44.40248978788207	-9.976698521020326	-10.01882540788758	55.33542675709268	0.9657853899074358	0	0	0	44.40248978788207	-9.976698521020326	-10.01882540788758	55.33542675709268	0.9657853899074358	0	0	0	-13.79456169618793	-1.172067276889908	1.478018750537208	81.79155192974278	-12.69149163565477	26.583635401407	70.20035776105976	92.95488327487635	0	0	65.41399228851176	-6.279697647622791	16.76439171599486	57.20657318474527	80.4313194166894	0	0
11.17999999999985	-13.28176034585336	-6.810486366370264	29.28993646589264	0	0.9399999999999999	0	44.40263892759625	-9.976718778984887	-10.01881489978508	55.33537058248342	0.9657844094755481	0	0	0	44.40263892759625	-9.976718778984887	-10.01881489978508	55.33537058248342	0.9657844094755481	0	0	0	-13.78009983987065	-1.210486819475025	1.361416662140837	82.44092636013522	-12.32946631627072	28.02070118124822	70.2718335615464	93.64552664461299	0	0	65.54514700997217	-6.236074734077667	16.67210538383189	57.01852293859199	80.53556720051144	0	0
11.19999999999985	-13.25024179879645	-6.870249600860868	29.47313648062724	0	0.9399999999999999	0	44.40285585140447	-9.976748310545052	-10.01879959118091	55.33528909628859	0.9657829872731535	0	0	0	44.40285585140447	-9.976748310545052	-10.01879959118091	55.33528909628859	0.9657829872731535	0	0	0	-13.78969497952442	-1.254308482377388	1.270375454728566	83.02506040997159	-12.04105884659882	29.38673753057587	70.13609012952597	93.8281879965765	0	0	65.69980447772339	-6.155205056218866	16.61332481571662	56.79988776193571	80.66830289783799	0	0
11.21999999999985	-13.21795757369765	-6.943591837426967	29.65827198381545	0	0.9399999999999999	0	44.40298488077846	-9.976765783213636	-10.01879051629118	55.3352404129611	0.9657821375887978	0	0	0	44.40298488077846	-9.976765783213636	-10.01879051629118	55.3352404129611	0.9657821375887978	0	0	0	-13.79851911786396	-1.327759659377507	1.235304432883208	83.47104662593242	-11.95440226813984	30.40290805366201	70.08236411296345	93.86740262092992	0	0	65.8422628877982	-6.026946705458188	16.73193173690321	56.66232051185236	80.76427866202206	0	0
11.23999999999985	-13.21705727371237	-6.974952750127011	29.75927813669473	0	0.9399999999999999	0	44.40319013710681	-9.976793633030551	-10.01877605982492	55.33516315308844	0.9657807891496403	0	0	0	44.40319013710681	-9.976793633030551	-10.01877605982492	55.33516315308844	0.9657807891496403	0	0	0	-13.81576872436886	-1.346515158013868	1.200612419560739	83.89123801541301	-11.86560096696228	31.14678685779239	69.94095202202304	93.91780383703505	0	0	65.95045412721316	-5.896675177401886	16.78057543510612	56.51400500654592	80.81663709559278	0	0
11.25999999999985	-13.19451658211262	-7.050016591957228	29.89794169557391	0	0.9399999999999999	0	44.40343369571261	-9.976826659748768	-10.01875891009606	55.33507148870346	0.9657791893043155	0	0	0	44.40343369571261	-9.976826659748768	-10.01875891009606	55.33507148870346	0.9657791893043155	0	0	0	-13.83063524649349	-1.428846327068771	1.208062522417904	84.19863915629736	-11.80234373114082	31.37322157231419	69.71866480193698	93.71785546641941	0	0	66.0673274144368	-5.749492733828814	17.07361340001275	56.36977548134843	80.85719957589603	0	0
11.27999999999985	-13.19280145003675	-7.127841488012227	30.04186415495705	0	0.9399999999999999	0	44.40359163049332	-9.976847705831984	-10.0187479158906	55.33501109998054	0.9657781353222696	0	0	0	44.40359163049332	-9.976847705831984	-10.0187479158906	55.33501109998054	0.9657781353222696	0	0	0	-13.86476637431189	-1.504751993671269	1.222495373530585	84.46612622767232	-11.80973017437686	31.32833190366861	69.52448045241181	93.45419021243013	0	0	66.17438584775225	-5.584568477081038	17.39878879087184	56.40342763586548	80.83693474089037	0	0
11.29999999999985	-13.1739541228567	-7.196943176206191	30.19251830645301	0	0.9399999999999999	0	44.40377510914659	-9.976871242855223	-10.01873545890735	55.33493851636522	0.9657768684991992	0	0	0	44.40377510914659	-9.976871242855223	-10.01873545890735	55.33493851636522	0.9657768684991992	0	0	0	-13.88571723064138	-1.567454213919135	1.195184367108608	84.65992475826481	-11.84803173038661	31.15826664426577	69.28537758136032	92.62436500872222	0	0	66.28479538246124	-5.447186167685227	17.66202904256583	56.28864500286509	80.83948068391561	0	0
11.31999999999985	-13.145269191633	-7.268480492199012	30.42924890438984	0	0.9399999999999999	0	44.40401697045535	-9.976903124562357	-10.01871873924622	55.33484520548915	0.9657752399171839	0	0	0	44.40401697045535	-9.976903124562357	-10.01871873924622	55.33484520548915	0.9657752399171839	0	0	0	-13.90475513089252	-1.622433291617427	1.126461299947437	84.73778239341991	-11.92453815036847	30.82803982528023	68.9269289029552	90.63242403519432	0	0	66.4114386998391	-5.26426388105639	17.85980033933314	56.24532539141227	80.9365943811821	0	0
